<?xml version="1.0" encoding="UTF-8"?>
<svg width="149px" height="62px" viewBox="0 0 149 62" version="1.1" xmlns="http://www.w3.org/2000/svg" xmlns:xlink="http://www.w3.org/1999/xlink">
    <!-- Generator: Sketch 45.1 (43504) - http://www.bohemiancoding.com/sketch -->
    <title>health-coach-institute</title>
    <desc>Created with Sketch.</desc>
    <defs></defs>
    <g id="Page-1" stroke="none" stroke-width="1" fill="none" fill-rule="evenodd">
        <g id="health-coach-institute">
            <g id="HCI-logo-stacked-color-Copy" transform="translate(1.000000, 0.000000)">
                <path d="M39.5234485,56.3487874 C39.5234485,55.4290468 38.9633201,54.793056 38.06908,54.793056 C37.165013,54.793056 36.585231,55.4290468 36.585231,56.3487874 C36.585231,57.3076659 37.1748398,57.9338722 38.06908,57.9338722 C38.9633201,57.9338722 39.5234485,57.3076659 39.5234485,56.3487874 Z" id="Shape"></path>
                <path d="M43.9062079,58.031717 C44.6235653,58.031717 45.1345597,57.6794759 45.1345597,57.1217609 L45.1345597,56.7205974 L43.8275934,56.7205974 C43.2871185,56.7205974 42.9333532,56.9162869 42.9333532,57.3663727 C42.9333532,57.8066741 43.2772917,58.031717 43.9062079,58.031717 Z" id="Shape"></path>
                <path d="M57.9094188,43.2962987 C57.9094188,44.8226767 58.9215807,45.9870291 60.4152565,45.9870291 C61.9089323,45.9870291 62.9210942,44.8226767 62.9210942,43.2962987 C62.9210942,41.7699207 61.9089323,40.6055683 60.4152565,40.6055683 C58.9215807,40.6055683 57.9094188,41.7699207 57.9094188,43.2962987 Z" id="Shape"></path>
                <path d="M74.2022774,54.7147802 C73.4063055,54.7147802 72.8658307,55.1550815 72.7184284,55.9182705 L75.5878583,55.9182705 C75.4797634,55.2235729 75.0473835,54.7147802 74.2022774,54.7147802 Z" id="Shape"></path>
                <path d="M67.4119485,44.8715991 L69.4264455,44.8715991 L68.9056243,43.6387553 C68.6796076,43.1006092 68.4339372,42.2689289 68.4142836,42.1906531 C68.4044568,42.229791 68.1587864,43.0810403 67.9327697,43.6387553 L67.4119485,44.8715991 Z" id="Shape"></path>
                <path d="M18.3663166,43.6387553 L17.8454954,44.8715991 L19.8599924,44.8715991 L19.3391712,43.6387553 C19.1131545,43.1006092 18.8674841,42.2689289 18.8478305,42.1906531 C18.8380037,42.229791 18.5923333,43.0810403 18.3663166,43.6387553 Z" id="Shape"></path>
                <path d="M107.711715,54.793056 C106.817475,54.793056 106.257347,55.4290468 106.257347,56.3487874 C106.257347,57.3076659 106.817475,57.9338722 107.711715,57.9338722 C108.605956,57.9338722 109.195564,57.3076659 109.195564,56.3487874 C109.195564,55.4290468 108.605956,54.793056 107.711715,54.793056 Z" id="Shape"></path>
                <path d="M114.433257,54.7147802 C113.637285,54.7147802 113.09681,55.1550815 112.949408,55.9182705 L115.818838,55.9182705 C115.710743,55.2235729 115.278363,54.7147802 114.433257,54.7147802 Z" id="Shape"></path>
                <path d="M93.9148676,57.3663727 C93.9148676,57.8066741 94.2588062,58.031717 94.8877223,58.031717 C95.6050798,58.031717 96.1160741,57.6794759 96.1160741,57.1217609 L96.1160741,56.7205974 L94.8091078,56.7205974 C94.268633,56.7205974 93.9148676,56.9162869 93.9148676,57.3663727 Z" id="Shape"></path>
                <path d="M68.1194792,33.9716947 C69.878479,34.5294098 71.4999034,34.1673842 72.846177,32.8856181 C74.4086406,31.4277314 75.9023164,29.8915689 77.4254727,28.3847599 C77.7595844,28.0520878 78.1428301,27.7585535 78.467115,27.4748038 C77.7988916,26.7898906 77.2387632,26.2126066 76.6000202,25.5570468 C76.4624448,25.7331674 76.3543499,25.8799345 76.2266013,25.9973482 C74.5363891,27.6802778 72.846177,29.3729918 71.1461381,31.0461369 C70.251898,31.9169551 68.9056243,31.9267396 68.0310378,31.0852748 C67.1367977,30.2242411 67.1073173,28.8739836 67.972077,27.9444586 C68.1489596,27.7585535 68.39463,27.6215709 68.5420322,27.5139417 C67.8541552,26.8290285 67.2743731,26.261529 66.6847642,25.6744605 C65.2500493,26.8681664 64.5425186,28.4434667 64.9061108,30.3612237 C65.2500493,32.1713514 66.3506525,33.4139797 68.1194792,33.9716947 Z" id="Shape" fill="#9B9B9B" fill-rule="nonzero"></path>
                <path d="M75.7450873,16.75102 C75.6173388,16.8782181 75.4306293,16.9760629 75.4109756,17.0739076 C76.9636124,18.629639 78.4572882,20.1168791 79.9018299,21.5649813 C80.4423048,21.0366197 81.0220868,20.4691202 81.6215225,19.8820517 C80.7272824,19.021018 79.8133886,18.1306308 78.8601876,17.2108903 C80.8845114,15.1952886 82.8203939,13.2481782 84.77593,11.3304212 C85.679997,10.4302496 87.0459242,10.4498185 87.9205107,11.3304212 C88.804924,12.2110239 88.7852704,13.5319279 87.9008571,14.4712375 C87.7239744,14.6571425 87.4389968,14.9408922 87.4389968,14.9408922 L89.2373039,16.7608044 C89.3552256,16.6238218 89.5026279,16.4477013 89.6598569,16.2813652 C91.5564321,14.3342548 91.5662589,11.3891281 89.6893373,9.53007795 C87.8025889,7.66124336 84.8447177,7.70038126 82.918662,9.61813822 C80.5307461,11.9761965 78.1428301,14.3636082 75.7450873,16.75102 Z" id="Shape" fill="#9B9B9B" fill-rule="nonzero"></path>
                <path d="M73.8878194,22.1031274 C75.8826628,24.0893757 77.8578525,26.0169171 79.793735,27.973812 C80.6683215,28.8544147 80.6093606,30.2340255 79.7446009,31.0754903 C78.8700144,31.9267396 77.5433944,31.9267396 76.6295007,31.0754903 C76.4329644,30.8993698 76.2855622,30.6743269 76.079199,30.5666977 C75.4895902,31.1439816 74.9196349,31.7114812 74.3201992,32.2985496 C75.5387242,33.7564363 77.1011878,34.4804874 79.0272434,34.1380308 C80.8943382,33.8053587 82.1718241,32.6801441 82.7221258,30.8798008 C83.2724274,29.0794576 82.8400475,27.4650193 81.4937739,26.1147619 C79.9706176,24.5883839 78.4474614,23.0620059 76.9243051,21.5356279 C75.9317968,20.5376115 74.9392885,19.5298107 74.0057412,18.5905011 L69.4952332,23.0815748 C70.0160544,23.600152 70.5860097,24.177436 71.2640599,24.8525647 L73.8878194,22.1031274 Z" id="Shape" fill="#9B9B9B" fill-rule="nonzero"></path>
                <path d="M58.9903684,25.4885555 C60.8279827,26.6137701 63.2257255,26.3789427 64.7783622,24.8525647 C67.2841999,22.3868772 69.770384,19.8918362 72.266395,17.4065798 C72.3450095,17.328304 72.4432776,17.2598126 72.4432776,17.2402437 C70.9004677,15.6845123 69.4166187,14.1777032 67.9819038,12.7198166 C67.4021217,13.2775316 66.8223396,13.8352466 66.1835967,14.4516685 C67.0974905,15.3420557 68.021211,16.2422273 68.925278,17.1326145 C66.9009542,19.1580006 64.9552449,21.1540334 62.9505747,23.1011438 C62.085815,23.9426086 60.7100609,23.8349794 59.8846085,22.9739456 C59.0493293,22.1031274 59.0591561,20.8017923 59.8846085,19.9114052 C60.4250833,19.3047678 60.4250833,19.3047678 60.4250833,19.3047678 C59.8453012,18.7372683 59.2851728,18.1795532 58.6660835,17.5729158 C58.4204131,17.8077432 58.1747427,18.0327861 57.948726,18.277398 C55.9538826,20.4789047 56.4550502,23.9328241 58.9903684,25.4885555 Z" id="Shape" fill="#9B9B9B" fill-rule="nonzero"></path>
                <path d="M66.3015185,8.1798205 C68.5420322,10.4400341 70.8021996,12.6513253 73.0427133,14.8919699 C73.3375178,15.1855041 73.5930149,15.5279607 73.7895512,15.7530036 C75.4011488,14.1581343 76.9144783,12.6611097 78.3393664,11.2521454 C77.8087184,10.7139993 77.24859,10.1464998 76.5901934,9.49094006 C75.7352605,10.3617583 74.8311936,11.2717144 73.9271266,12.191455 C71.9519369,10.2345601 69.9669203,8.28744972 68.021211,6.31098591 C67.176105,5.44995218 67.2350659,4.08991025 68.0801719,3.25822994 C68.9351048,2.41676515 70.2420711,2.3971962 71.1559649,3.19952309 C71.3819816,3.39521258 71.5392107,3.65939338 71.7259202,3.73766918 L73.5242272,2.07430855 C72.0403782,0.293534229 70.0651885,-0.322887651 68.1194792,0.3424566 C64.7685354,1.48724009 63.7956807,5.63585719 66.3015185,8.1798205 Z" id="Shape" fill="#9B9B9B" fill-rule="nonzero"></path>
                <path d="M74.9589422,1.45788667 C73.2490764,3.15060072 71.5392107,4.84331477 69.8391717,6.53602882 C69.6819427,6.67301146 69.4755796,6.91762332 69.4755796,6.91762332 L71.2738867,8.72775106 C71.2738867,8.72775106 71.5293839,8.42443236 71.6767861,8.27766524 C73.3375178,6.61430462 74.9982494,4.95094399 76.6786347,3.29736783 C77.6023553,2.3971962 78.9388021,2.38741173 79.8330422,3.23866099 C80.7272824,4.08991025 80.7371092,5.42059875 79.8723495,6.37947723 C79.6954668,6.57516672 79.3613551,6.92740779 79.3613551,6.92740779 C79.950964,7.51447625 80.5209193,8.08197576 81.0908745,8.64947527 C83.6556731,6.73171831 83.7048072,3.05275598 81.169489,1.0665077 C79.3318747,-0.371810023 76.6196739,-0.195689486 74.9589422,1.45788667 Z" id="Shape" fill="#9B9B9B" fill-rule="nonzero"></path>
                <path d="M89.7679519,24.7547199 C91.615393,22.8663164 91.5367785,19.9016207 89.5812424,17.9545103 C88.5002928,16.8782181 87.4193432,15.8117104 86.3482204,14.7354183 C85.6505165,14.0309361 84.9626395,13.326454 84.3042429,12.6513253 C83.6753268,13.2873161 83.1053715,13.8548156 82.4371481,14.5103754 C82.8990084,14.9311078 83.400176,15.3714091 83.8816899,15.8410639 C85.2279635,17.1717524 86.5742371,18.5024409 87.9106839,19.8526983 C88.7066559,20.6550252 88.8245777,21.8780845 88.2153151,22.7097648 C87.5372649,23.6295054 86.3187399,23.9132552 85.2770976,23.3848935 C84.8643713,23.1696351 84.5990474,22.7782561 84.2649357,22.4945064 C83.6753268,23.1011438 83.0955447,23.6784278 82.4666286,24.3242031 C82.604204,24.4416168 82.7909135,24.5785994 82.9481425,24.7449355 C84.9429859,26.652908 87.8812034,26.6626924 89.7679519,24.7547199 Z" id="Shape" fill="#9B9B9B" fill-rule="nonzero"></path>
                <path d="M62.8916138,20.9681284 C63.1372841,21.2127402 63.3436473,21.49649 63.5107031,21.6921795 C64.1985801,21.0268352 64.7783622,20.4691202 65.4072783,19.8624828 C64.8274963,19.3047678 64.2378874,18.7470527 63.6679321,18.1795532 C62.4199267,16.9467095 61.1719212,15.7138657 59.9435694,14.4712375 C59.0395024,13.5514969 59.0395024,12.2110239 59.9140889,11.3304212 C60.7690218,10.4693875 62.0956418,10.4498185 63.0291892,11.2912833 C63.2355523,11.4771883 63.4320886,11.6728778 63.5893176,11.8196449 C64.1985801,11.222792 64.7783622,10.665077 65.3679711,10.087793 C64.2673678,8.74732001 62.8719602,8.00369996 61.1129603,8.17003603 C59.1377706,8.35594104 57.7128825,9.40287979 57.0446591,11.2619299 C56.3666089,13.1601179 56.7891619,14.8821854 58.2238768,16.3205031 C59.7765135,17.8762345 61.3389771,19.412397 62.8916138,20.9681284 Z" id="Shape" fill="#9B9B9B" fill-rule="nonzero"></path>
                <path d="M61.3881111,15.0974438 C61.9187591,15.616021 62.4887144,16.173736 63.0193624,16.6923131 C64.8668035,14.8724009 66.7142447,13.0329197 68.551859,11.222792 C68.0015574,10.6846459 67.4316022,10.1073619 66.9206078,9.60835375 C65.0829934,11.428266 63.2355523,13.2677471 61.3881111,15.0974438 Z" id="Shape" fill="#9B9B9B" fill-rule="nonzero"></path>
                <path d="M79.950964,11.7609381 C80.4914388,11.2325765 81.0515673,10.6748614 81.542908,10.1758533 C79.6954668,8.33637209 77.8676793,6.49689093 76.1283331,4.74547003 C75.5878583,5.27383164 75.0080762,5.83154667 74.5167355,6.31098591 C76.3150426,8.11132918 78.1428301,9.95081035 79.950964,11.7609381 Z" id="Shape" fill="#9B9B9B" fill-rule="nonzero"></path>
                <path d="M86.4170081,19.2754143 C85.8667064,18.7274838 85.306578,18.1501998 84.7562764,17.6022692 L79.2139529,23.0913593 L80.8943382,24.715582 C82.7712598,22.8663164 84.6285278,21.0464042 86.4170081,19.2754143 Z" id="Shape" fill="#9B9B9B" fill-rule="nonzero"></path>
                <path d="M66.272038,24.2165739 C68.0801719,26.0169171 69.9177863,27.8368293 71.7259202,29.6371726 L73.376825,27.9933809 C71.5588643,26.1832532 69.7310768,24.363341 67.9131161,22.5532132 L66.272038,24.2165739 Z" id="Shape" fill="#9B9B9B" fill-rule="nonzero"></path>
                <polygon id="Shape" fill="#9B9B9B" fill-rule="nonzero" points="6.93773115 39.2161729 5.24751902 39.2161729 5.24751902 42.6700924 1.73934619 42.6700924 1.73934619 39.2161729 0.0491340733 39.2161729 0.0491340733 47.3764245 1.72951938 47.3764245 1.72951938 44.1671169 5.23769221 44.1671169 5.23769221 47.3764245 6.93773115 47.3764245"></polygon>
                <polygon id="Shape" fill="#9B9B9B" fill-rule="nonzero" points="14.2292276 47.3764245 14.2292276 45.8989689 10.3279822 45.8989689 10.3279822 44.0007809 13.6199651 44.0007809 13.6199651 42.5624631 10.3279822 42.5624631 10.3279822 40.6936285 14.0621718 40.6936285 14.0621718 39.2161729 8.63777008 39.2161729 8.63777008 47.3764245"></polygon>
                <path d="M18.7986964,39.1476816 L15.1922555,47.386209 L16.8235067,47.386209 L17.285367,46.2805634 L20.4692549,46.2805634 L20.9311152,47.386209 L22.6999418,47.386209 L18.9460987,39.1476816 L18.7986964,39.1476816 Z M19.3391712,43.6387553 L19.8599924,44.8715991 L17.8454954,44.8715991 L18.3663166,43.6387553 C18.5923333,43.0810403 18.8380037,42.229791 18.8478305,42.1906531 C18.8674841,42.2689289 19.1131545,43.1006092 19.3391712,43.6387553 Z" id="Shape" fill="#9B9B9B" fill-rule="nonzero"></path>
                <polygon id="Shape" fill="#9B9B9B" fill-rule="nonzero" points="23.8103719 47.3764245 29.21512 47.3764245 29.21512 45.8989689 25.500584 45.8989689 25.500584 39.2161729 23.8103719 39.2161729"></polygon>
                <polygon id="Shape" fill="#9B9B9B" fill-rule="nonzero" points="31.4163264 47.3764245 33.1065386 47.3764245 33.1065386 40.6936285 35.4453205 40.6936285 35.4453205 39.2161729 29.0775446 39.2161729 29.0775446 40.6936285 31.4163264 40.6936285"></polygon>
                <polygon id="Shape" fill="#9B9B9B" fill-rule="nonzero" points="36.6834991 39.2161729 36.6834991 47.3764245 38.3737112 47.3764245 38.3737112 44.1671169 41.8818841 44.1671169 41.8818841 47.3764245 43.5720962 47.3764245 43.5720962 39.2161729 41.8818841 39.2161729 41.8818841 42.6700924 38.3737112 42.6700924 38.3737112 39.2161729"></polygon>
                <path d="M47.6698779,43.2962987 C47.6698779,45.7130639 49.5369727,47.4938382 51.905235,47.4840537 C53.4775253,47.4840537 54.6174358,46.789356 55.3249665,45.6837104 L54.0081733,44.7835388 C53.546313,45.4782365 52.9567042,45.9870291 51.8954082,45.9870291 C50.4115592,45.9870291 49.4092241,44.8226767 49.4092241,43.2962987 C49.4092241,41.7797052 50.4115592,40.6349217 51.8954082,40.6349217 C52.8289556,40.6349217 53.497179,41.075223 53.8804247,41.7014294 L55.1677375,40.7914733 C54.4307264,39.6466898 53.3694304,39.1183282 51.8855814,39.1183282 C49.5369727,39.1183282 47.6698779,40.8795336 47.6698779,43.2962987 Z" id="Shape" fill="#9B9B9B" fill-rule="nonzero"></path>
                <path d="M56.1700726,43.2962987 C56.1700726,45.7130639 58.0469942,47.4840537 60.4152565,47.4840537 C62.7835188,47.4840537 64.6604404,45.7130639 64.6604404,43.2962987 C64.6604404,40.889318 62.7835188,39.1085437 60.4152565,39.1085437 C58.0469942,39.1085437 56.1700726,40.8795336 56.1700726,43.2962987 Z M60.4152565,40.6055683 C61.9089323,40.6055683 62.9210942,41.7699207 62.9210942,43.2962987 C62.9210942,44.8226767 61.9089323,45.9870291 60.4152565,45.9870291 C58.9215807,45.9870291 57.9094188,44.8226767 57.9094188,43.2962987 C57.9094188,41.7699207 58.9215807,40.6055683 60.4152565,40.6055683 Z" id="Shape" fill="#9B9B9B" fill-rule="nonzero"></path>
                <path d="M66.3899598,47.386209 L66.8518201,46.2805634 L70.035708,46.2805634 L70.4975683,47.386209 L72.266395,47.386209 L68.5125518,39.1476816 L68.3651495,39.1476816 L64.7587086,47.386209 L66.3899598,47.386209 Z M68.4142836,42.1906531 C68.4339372,42.2689289 68.6796076,43.1006092 68.9056243,43.6387553 L69.4264455,44.8715991 L67.4119485,44.8715991 L67.9327697,43.6387553 C68.1587864,43.0810403 68.4044568,42.229791 68.4142836,42.1906531 Z" id="Shape" fill="#9B9B9B" fill-rule="nonzero"></path>
                <path d="M76.6000202,47.4840537 C78.1723106,47.4840537 79.3122211,46.789356 80.0197517,45.6837104 L78.7029586,44.7835388 C78.2410983,45.4782365 77.6514894,45.9870291 76.5901934,45.9870291 C75.1063444,45.9870291 74.1040093,44.8226767 74.1040093,43.2962987 C74.1040093,41.7797052 75.1063444,40.6349217 76.5901934,40.6349217 C77.5237408,40.6349217 78.1919642,41.075223 78.57521,41.7014294 L79.8625227,40.7914733 C79.1255116,39.6466898 78.0642156,39.1183282 76.5803666,39.1183282 C74.2317579,39.1183282 72.3646631,40.8795336 72.3646631,43.2962987 C72.3646631,45.7130639 74.2415847,47.4938382 76.6000202,47.4840537 Z" id="Shape" fill="#9B9B9B" fill-rule="nonzero"></path>
                <polygon id="Shape" fill="#9B9B9B" fill-rule="nonzero" points="88.1465274 47.3764245 88.1465274 39.2161729 86.4661421 39.2161729 86.4661421 42.6700924 82.9579693 42.6700924 82.9579693 39.2161729 81.2677572 39.2161729 81.2677572 47.3764245 82.9481425 47.3764245 82.9481425 44.1671169 86.4563153 44.1671169 86.4563153 47.3764245"></polygon>
                <rect id="Rectangle-path" fill="#9B9B9B" fill-rule="nonzero" x="93.0206275" y="39.2161729" width="1" height="8.16025155"></rect>
                <path d="M96.3224372,39.1281127 L96.175035,39.1281127 L96.175035,47.3764245 L96.9906606,47.3764245 L96.9906606,41.8677655 C96.9906606,41.5448778 96.9218729,41.0165162 96.9218729,40.9578094 C96.9611802,41.0165162 97.2756383,41.4470331 97.4918282,41.7014294 L102.385582,47.4644848 L102.532984,47.4644848 L102.532984,39.2161729 L101.727185,39.2161729 L101.727185,44.724832 C101.727185,45.0672886 101.786146,45.6250036 101.786146,45.6445725 C101.746839,45.5956502 101.432381,45.1553488 101.216191,44.891168 L96.3224372,39.1281127 Z" id="Shape" fill="#9B9B9B" fill-rule="nonzero"></path>
                <path d="M107.004185,43.6191864 C108.026173,44.0692722 108.546995,44.4900046 108.546995,45.3216849 C108.546995,46.1827186 107.800157,46.7110802 106.846956,46.7110802 C105.687392,46.7110802 105.117436,46.1240118 104.734191,45.4390986 L104.007006,45.8206931 C104.439386,46.6817268 105.294319,47.4742692 106.876436,47.4840537 C108.350458,47.4840537 109.421581,46.6621579 109.421581,45.3216849 C109.421581,44.0986256 108.723877,43.4234969 107.35795,42.8266439 L106.70938,42.5233252 C105.795487,42.1025928 105.412241,41.7797052 105.412241,41.0556541 C105.412241,40.3609564 105.903582,39.8913017 106.70938,39.8913017 C107.485699,39.8913017 107.918079,40.2728962 108.232537,40.7816888 L108.93024,40.3511719 C108.497861,39.6369053 107.809984,39.1281127 106.70938,39.1281127 C105.471202,39.1281127 104.547481,39.9108706 104.547481,41.0850075 C104.547481,42.2200065 105.186224,42.787506 106.355615,43.3158677 L107.004185,43.6191864 Z" id="Shape" fill="#9B9B9B" fill-rule="nonzero"></path>
                <polygon id="Shape" fill="#9B9B9B" fill-rule="nonzero" points="110.276514 39.2161729 110.276514 39.9891464 112.792179 39.9891464 112.802005 39.9891464 112.802005 47.386209 113.666765 47.386209 113.666765 39.9891464 116.18243 39.9891464 116.18243 39.2161729"></polygon>
                <rect id="Rectangle-path" fill="#9B9B9B" fill-rule="nonzero" x="117.735066" y="39.2161729" width="1" height="8.16025155"></rect>
                <polygon id="Shape" fill="#9B9B9B" fill-rule="nonzero" points="123.562367 39.9891464 126.078032 39.9891464 126.078032 39.2161729 120.172116 39.2161729 120.172116 39.9891464 122.687781 39.9891464 122.697608 39.9891464 122.697608 47.386209 123.562367 47.386209"></polygon>
                <path d="M133.399009,39.2161729 L132.534249,39.2161729 L132.534249,44.5291425 C132.534249,45.9772447 131.72845,46.7012958 130.460791,46.7012958 C129.183305,46.7012958 128.387333,45.9772447 128.387333,44.5291425 L128.387333,39.2161729 L127.522574,39.2161729 L127.522574,44.5976338 C127.522574,46.5056063 128.790233,47.4742692 130.460791,47.4742692 C132.121523,47.4742692 133.399009,46.5056063 133.399009,44.5976338 L133.399009,39.2161729 L133.399009,39.2161729 Z" id="Shape" fill="#9B9B9B" fill-rule="nonzero"></path>
                <polygon id="Shape" fill="#9B9B9B" fill-rule="nonzero" points="138.253455 39.9891464 140.76912 39.9891464 140.76912 39.2161729 134.863204 39.2161729 134.863204 39.9891464 137.378869 39.9891464 137.388696 39.9891464 137.388696 47.386209 138.253455 47.386209"></polygon>
                <polygon id="Shape" fill="#9B9B9B" fill-rule="nonzero" points="142.282449 39.2161729 142.282449 47.386209 147.441527 47.386209 147.441527 46.6132355 143.147209 46.6132355 143.147209 43.6583243 146.822438 43.6583243 146.822438 42.9049197 143.147209 42.9049197 143.147209 39.9891464 147.274471 39.9891464 147.274471 39.2161729"></polygon>
                <path d="M34.1481809,57.4152951 C34.1481809,56.3292185 33.2735944,56.0161153 32.4677956,55.8106413 C31.6619968,55.6051674 31.3475387,55.5268916 31.3475387,55.1355126 C31.3475387,54.8321939 31.6030359,54.6658578 32.0648962,54.6658578 C32.5267565,54.6658578 32.8805218,54.8811163 33.1261922,55.164866 L33.8435497,54.4603839 C33.4504771,54.0396515 32.8805218,53.6971949 32.0648962,53.6971949 C31.0527343,53.6971949 30.2371087,54.1864186 30.2371087,55.2040039 C30.2371087,56.2118048 30.9937734,56.5640458 31.7504381,56.7695198 C32.6250246,57.0141317 32.9984436,57.0728385 32.9984436,57.4837864 C32.9984436,57.826243 32.713466,58.031717 32.0943767,58.031717 C31.5145946,58.031717 31.0330807,57.826243 30.7186226,57.3761572 L29.8735165,57.9632257 C30.2076282,58.5013717 30.9937734,59.0199489 32.1631644,59.0003799 C33.6077061,59.0003799 34.1481809,58.2861133 34.1481809,57.4152951 Z" id="Shape" fill="#9B9B9B" fill-rule="nonzero"></path>
                <path d="M40.7911076,56.3390029 C40.7911076,54.8028405 39.7298116,53.6971949 38.4130185,53.6971949 C37.538432,53.6971949 36.9193427,54.1179273 36.5950578,54.7539181 L36.634365,53.8048241 L35.3863596,53.8048241 L35.3863596,61.4758519 L36.634365,61.4758519 L36.634365,58.031717 C36.9291695,58.5992165 37.538432,59.0101644 38.3933649,59.0101644 C39.7199848,59.0101644 40.7911076,57.8751654 40.7911076,56.3390029 Z M36.585231,56.3487874 C36.585231,55.4290468 37.165013,54.793056 38.06908,54.793056 C38.9633201,54.793056 39.5234485,55.4290468 39.5234485,56.3487874 C39.5234485,57.3076659 38.9633201,57.9338722 38.06908,57.9338722 C37.1748398,57.9338722 36.585231,57.3076659 36.585231,56.3487874 Z" id="Shape" fill="#9B9B9B" fill-rule="nonzero"></path>
                <path d="M45.1935206,58.1882686 L45.1542133,58.9123197 L46.3825652,58.9123197 L46.3825652,55.8987016 C46.3825652,54.3918925 45.4490178,53.6971949 44.2206659,53.6971949 C43.1397163,53.6971949 42.5304538,54.0690049 42.0784203,54.607151 L42.785951,55.3214176 C43.0611018,55.0083144 43.4541744,54.7147802 44.1223978,54.7147802 C44.7807944,54.7147802 45.1443865,55.0572368 45.1640401,55.8889171 L43.7588057,55.8889171 C42.5992415,55.8987016 41.7443086,56.3585719 41.7443086,57.4152951 C41.7443086,58.5600786 42.5697611,59.0297334 43.581923,59.0297334 C44.3385877,59.0297334 44.8299284,58.7361991 45.1935206,58.1882686 Z M43.8275934,56.7205974 L45.1345597,56.7205974 L45.1345597,57.1217609 C45.1345597,57.6794759 44.6235653,58.031717 43.9062079,58.031717 C43.2772917,58.031717 42.9333532,57.8066741 42.9333532,57.3663727 C42.9333532,56.9162869 43.2871185,56.7205974 43.8275934,56.7205974 Z" id="Shape" fill="#9B9B9B" fill-rule="nonzero"></path>
                <path d="M49.1242465,56.4270632 C49.1242465,55.2822797 49.625414,54.8615473 50.3525983,54.8615473 C50.6277491,54.8615473 50.8242854,54.9300386 51.0208217,55.0278834 L51.4335479,53.9222378 C51.2075312,53.7950396 50.952034,53.7069793 50.5884418,53.7069793 C50.0283134,53.7069793 49.4485313,53.9613757 49.1045928,54.7637026 L49.1144196,53.8048241 L47.8958946,53.8048241 L47.8958946,58.9025352 L49.1242465,58.9025352 L49.1242465,56.4270632 Z" id="Shape" fill="#9B9B9B" fill-rule="nonzero"></path>
                <path d="M55.1677375,55.928055 L57.0544859,53.8048241 L55.6492514,53.8048241 L53.6052739,56.0943911 C53.6249276,55.8302103 53.6642348,55.5073226 53.6642348,55.1942194 L53.6642348,50.1356462 L52.435883,50.1356462 L52.435883,58.9025352 L53.654408,58.9025352 L53.654408,57.3957262 L54.3029778,56.7303819 L55.8556145,58.9025352 L57.3099831,58.9025352 L55.1677375,55.928055 Z" id="Shape" fill="#9B9B9B" fill-rule="nonzero"></path>
                <path d="M61.4372452,53.8146086 L60.6707537,53.8146086 L60.6707537,54.8419784 L61.4372452,54.8419784 L61.4372452,57.1804677 C61.4372452,58.5405096 62.1054686,59.0297334 63.0095356,59.0395178 C63.6974126,59.0395178 64.0806584,58.7851215 64.3361555,58.5502941 L63.8251612,57.7088293 C63.6875858,57.8164585 63.5008763,57.9730101 63.1765914,57.9730101 C62.8621333,57.9730101 62.665597,57.8066741 62.665597,57.2098211 L62.665597,54.8419784 L64.0315243,54.8419784 L64.0315243,53.8146086 L62.665597,53.8146086 L62.665597,51.8479292 L61.4372452,51.8479292 L61.4372452,53.8146086 L61.4372452,53.8146086 Z" id="Shape" fill="#9B9B9B" fill-rule="nonzero"></path>
                <path d="M70.2027639,55.8791326 C70.2027639,54.4995218 69.4166187,53.6971949 68.286535,53.6971949 C67.5200435,53.6971949 66.9009542,54.0690049 66.5766693,54.7049957 L66.5766693,50.1454307 L65.3483174,50.1454307 L65.3483174,58.9025352 L66.5864961,58.9025352 L66.5864961,56.133529 C66.5864961,55.3116331 67.1073173,54.8224094 67.9131161,54.8224094 C68.6304735,54.8224094 68.9744121,55.2529263 68.9744121,55.9769774 L68.9744121,58.9025352 L70.2027639,58.9025352 L70.2027639,55.8791326 Z" id="Shape" fill="#9B9B9B" fill-rule="nonzero"></path>
                <path d="M76.5017521,58.1882686 L75.7843946,57.4348641 C75.4895902,57.7186138 74.9982494,57.9827946 74.330026,57.9827946 C73.3964786,57.9827946 72.8560038,57.5131398 72.7086016,56.7597353 L76.826037,56.7597353 C76.9144783,54.9691765 75.92197,53.6874104 74.1826238,53.6874104 C72.6496407,53.6874104 71.4507693,54.8321939 71.4507693,56.3487874 C71.4507693,57.8849499 72.580853,59.0101644 74.3398529,59.0101644 C75.3716684,59.0101644 76.030065,58.6579233 76.5017521,58.1882686 Z M74.2022774,54.7147802 C75.0473835,54.7147802 75.4797634,55.2235729 75.5878583,55.9182705 L72.7184284,55.9182705 C72.8658307,55.1550815 73.4063055,54.7147802 74.2022774,54.7147802 Z" id="Shape" fill="#9B9B9B" fill-rule="nonzero"></path>
                <path d="M83.400176,57.9240878 C82.4862822,57.9240878 81.9359806,57.2587435 81.9359806,56.3487874 C81.9359806,55.4388313 82.4862822,54.773487 83.400176,54.773487 C83.930824,54.773487 84.353377,55.0180989 84.5990474,55.37034 L85.4736339,54.6658578 C84.9822931,54.0592204 84.3632038,53.6971949 83.400176,53.6971949 C81.8377124,53.6971949 80.6683215,54.8419784 80.6683215,56.3585719 C80.6683215,57.8849499 81.8377124,59.0199489 83.4100028,59.0003799 C84.3926842,59.0003799 85.0019468,58.6481389 85.5031143,58.0806394 L84.6580082,57.3565883 C84.3730306,57.6696914 84.0094385,57.9240878 83.400176,57.9240878 Z" id="Shape" fill="#9B9B9B" fill-rule="nonzero"></path>
                <path d="M91.5171249,55.8791326 C91.5171249,54.4995218 90.7309797,53.6971949 89.600896,53.6971949 C88.8344045,53.6971949 88.2153151,54.0690049 87.8910303,54.7049957 L87.8910303,50.1454307 L86.6725052,50.1454307 L86.6725052,58.9025352 L87.9008571,58.9025352 L87.9008571,56.133529 C87.9008571,55.3116331 88.4216783,54.8224094 89.2274771,54.8224094 C89.9448345,54.8224094 90.288773,55.2529263 90.288773,55.9769774 L90.288773,58.9025352 L91.5171249,58.9025352 L91.5171249,55.8791326 Z" id="Shape" fill="#9B9B9B" fill-rule="nonzero"></path>
                <path d="M97.3640796,55.8987016 C97.3640796,54.3918925 96.4305322,53.6971949 95.2021804,53.6971949 C94.1212307,53.6971949 93.5119682,54.0690049 93.0599348,54.607151 L93.7674654,55.3214176 C94.0426162,55.0083144 94.4356888,54.7147802 95.1039122,54.7147802 C95.7623088,54.7147802 96.1259009,55.0572368 96.1455546,55.8889171 L94.7403201,55.8889171 C93.5807559,55.8987016 92.7258231,56.3585719 92.7258231,57.4152951 C92.7258231,58.5600786 93.5512755,59.0297334 94.5634374,59.0297334 C95.3201021,59.0297334 95.8114429,58.7361991 96.175035,58.1882686 L96.1357278,58.9123197 L97.3640796,58.9123197 L97.3640796,55.8987016 Z M96.1160741,57.1217609 C96.1160741,57.6794759 95.6050798,58.031717 94.8877223,58.031717 C94.2588062,58.031717 93.9148676,57.8066741 93.9148676,57.3663727 C93.9148676,56.9162869 94.268633,56.7205974 94.8091078,56.7205974 L96.1160741,56.7205974 L96.1160741,57.1217609 L96.1160741,57.1217609 Z" id="Shape" fill="#9B9B9B" fill-rule="nonzero"></path>
                <path d="M103.722029,58.9025352 L103.722029,55.8791326 C103.722029,54.4995218 102.935883,53.6971949 101.8058,53.6971949 C101.039308,53.6971949 100.390738,54.0885738 100.07628,54.7539181 L100.095934,53.8048241 L98.877409,53.8048241 L98.877409,58.9025352 L100.105761,58.9025352 L100.105761,56.133529 C100.105761,55.3116331 100.626582,54.8224094 101.432381,54.8224094 C102.149738,54.8224094 102.493677,55.2529263 102.493677,55.9769774 L102.493677,58.9025352 L103.722029,58.9025352 Z" id="Shape" fill="#9B9B9B" fill-rule="nonzero"></path>
                <path d="M110.384609,53.7950396 L109.156257,53.7950396 L109.195564,54.7441336 C108.87128,54.1277117 108.271844,53.6874104 107.367777,53.6874104 C106.060811,53.6874104 104.989688,54.7832715 104.989688,56.3292185 C104.989688,57.8751654 106.060811,59.0003799 107.387431,59.0003799 C108.242363,59.0003799 108.851626,58.589432 109.156257,58.0219325 L109.156257,58.9123197 C109.156257,60.0571032 108.596129,60.5658958 107.672408,60.5658958 C106.856783,60.5658958 106.355615,60.1940858 105.952716,59.6070173 L105.058475,60.2625771 C105.520336,61.0257661 106.414576,61.6030501 107.731369,61.5834811 C109.225045,61.5834811 110.384609,60.8300766 110.384609,58.961242 L110.384609,53.7950396 L110.384609,53.7950396 Z M107.711715,57.9338722 C106.817475,57.9338722 106.257347,57.3076659 106.257347,56.3487874 C106.257347,55.4290468 106.817475,54.793056 107.711715,54.793056 C108.605956,54.793056 109.195564,55.4290468 109.195564,56.3487874 C109.195564,57.3076659 108.605956,57.9338722 107.711715,57.9338722 Z" id="Shape" fill="#9B9B9B" fill-rule="nonzero"></path>
                <path d="M114.413603,53.6874104 C112.88062,53.6874104 111.681749,54.8321939 111.681749,56.3487874 C111.681749,57.8849499 112.811832,59.0101644 114.570832,59.0101644 C115.602648,59.0101644 116.261044,58.6579233 116.732731,58.1882686 L116.015374,57.4348641 C115.720569,57.7186138 115.229229,57.9827946 114.561005,57.9827946 C113.627458,57.9827946 113.086983,57.5131398 112.939581,56.7597353 L117.057016,56.7597353 C117.145457,54.9691765 116.152949,53.6874104 114.413603,53.6874104 Z M112.949408,55.9182705 C113.09681,55.1550815 113.637285,54.7147802 114.433257,54.7147802 C115.278363,54.7147802 115.710743,55.2235729 115.818838,55.9182705 L112.949408,55.9182705 Z" id="Shape" fill="#9B9B9B" fill-rule="nonzero"></path>
            </g>
        </g>
    </g>
</svg>