<?xml version="1.0" encoding="UTF-8"?>
<svg width="112px" height="58px" viewBox="0 0 112 58" version="1.1" xmlns="http://www.w3.org/2000/svg" xmlns:xlink="http://www.w3.org/1999/xlink">
    <!-- Generator: Sketch 45.1 (43504) - http://www.bohemiancoding.com/sketch -->
    <title>mbg</title>
    <desc>Created with Sketch.</desc>
    <defs></defs>
    <g id="Page-1" stroke="none" stroke-width="1" fill="none" fill-rule="evenodd">
        <g id="mbg" fill-rule="nonzero" fill="#9B9B9B">
            <g id="b/w">
                <path d="M37.42,25 C37.42,21.45 35.76,19.8 32.92,19.8 C29.49,19.8 26.65,22.64 26.65,26.9 L26.65,42.58 L18.85,42.58 L18.85,25 C18.85,21.45 17.31,19.8 14.3,19.8 C10.87,19.8 8.03,22.8 8.03,27.19 L8.03,42.58 L0.22,42.58 L0.22,13.37 L8,13.37 L8,17 C10.2588211,14.2153688 13.6445112,12.5867162 17.23,12.56 C21.23,12.56 24.23,13.86 25.81,16.7 C28.3946559,13.9185478 32.0661576,12.4061083 35.86,12.56 C41.48,12.56 45.21,15.99 45.21,21.84 L45.21,42.58 L37.42,42.58 L37.42,25 Z M55.69,39.51 L55.69,42.59 L47.89,42.59 L47.89,0 L55.7,0 L55.7,16.15 C57.83,13.72 60.91,12.54 64.99,12.54 C72.99,12.54 79.48,18.16 79.48,27.98 C79.48,37.03 73.39,43.42 65.11,43.42 C61.5532653,43.5788106 58.1096442,42.1500742 55.71,39.52 M71.66,28 C71.66,23.4933564 68.0066436,19.84 63.5,19.84 C58.9933564,19.84 55.34,23.4933564 55.34,28 C55.34,32.5066436 58.9933564,36.16 63.5,36.16 C68.0066436,36.16 71.66,32.5066436 71.66,28 M89.05,27.56 C89.05,31.8402068 92.5197932,35.31 96.8,35.31 C101.080207,35.31 104.55,31.8402068 104.55,27.56 C104.55,23.2797932 101.080207,19.81 96.8,19.81 C92.5197932,19.81 89.05,23.2797932 89.05,27.56 L89.05,27.56 Z M87.63,47.08 C89.9974355,48.7472815 92.8349288,49.6160448 95.73,49.56 C100.99,49.56 104.19,46.72 104.19,41.34 L104.19,39.45 C101.884494,41.5934075 98.8147792,42.7211314 95.67,42.58 C87.51,42.58 81.24,36.07 81.24,27.58 C81.1105677,23.6724751 82.5623968,19.8778656 85.2670264,17.0546613 C87.9716561,14.2314571 91.7005191,12.6182461 95.61,12.58 C100.11,12.58 102.53,14.18 104.19,16.07 L104.19,13.37 L112,13.37 L112,39.92 C112,52.05 105.26,56.78 95.74,56.78 C92.466102,56.9245571 89.2199054,56.1225556 86.39,54.47 L86.1,47.08 L87.63,47.08 Z M7.15,48.29 L7.13,48.29 C7.63605776,48.2473276 8.13530572,48.4291694 8.49537399,48.7873122 C8.85544225,49.1454549 9.03995837,49.6437207 9,50.15 L9,54.27 L7.46,54.27 L7.46,50.74 C7.46,50.07 7.13,49.74 6.56,49.74 C6.20140083,49.7524098 5.86358818,49.9113673 5.62543997,50.1797566 C5.38729175,50.4481458 5.26965593,50.8024715 5.3,51.16 L5.3,54.27 L3.74,54.27 L3.74,50.74 C3.74,50.07 3.43,49.74 2.83,49.74 C2.46304973,49.7598715 2.12036354,49.9295736 1.88214111,50.2093904 C1.64391869,50.4892072 1.53106808,50.8545801 1.57,51.22 L1.57,54.31 L0,54.31 L0,48.46 L1.58,48.46 L1.58,49.18 C2.032261,48.6212476 2.71116574,48.2946394 3.43,48.29 C4.11494075,48.2146353 4.78279916,48.5369158 5.15,49.12 C5.66503453,48.5667888 6.39460065,48.2640189 7.15,48.29 Z M11.74,48.46 L10.18,48.46 L10.18,54.31 L11.75,54.31 L11.74,48.46 Z M10.95,45.69 C11.5022847,45.69 11.95,46.1377153 11.95,46.69 C11.95,47.2422847 11.5022847,47.69 10.95,47.69 C10.3977153,47.69 9.95,47.2422847 9.95,46.69 C9.95,46.1377153 10.3977153,45.69 10.95,45.69 Z M16.41,48.29 L16.4,48.34 C16.9554534,48.2761602 17.5105019,48.462863 17.9144542,48.8494203 C18.3184066,49.2359776 18.5293445,49.782276 18.49,50.34 L18.49,54.34 L16.93,54.34 L16.93,50.9 C16.9759942,50.5912365 16.8751601,50.2787074 16.6573848,50.0550463 C16.4396096,49.8313853 16.12988,49.7222543 15.82,49.76 C15.4313077,49.7711073 15.0653396,49.9456852 14.8121219,50.2407885 C14.5589043,50.5358918 14.4419394,50.9241305 14.49,51.31 L14.49,54.31 L12.92,54.31 L12.92,48.46 L14.49,48.46 L14.49,49.18 C14.9640623,48.6103031 15.6688869,48.2835875 16.41,48.29 Z M22.5,53 C21.8317422,53.0040501 21.22703,52.6046186 20.9684876,51.9883875 C20.7099451,51.3721565 20.8486331,50.6608282 21.3197329,50.1868558 C21.7908328,49.7128834 22.5013049,49.5698738 23.1190962,49.8246654 C23.7368875,50.0794571 24.1399877,50.6817299 24.14,51.35 C24.1599233,51.7916591 23.9938906,52.2214627 23.6822245,52.5350292 C23.3705584,52.8485957 22.941772,53.0172381 22.5,53 L22.5,53 Z M25.63,45.75 L24.06,45.75 L24.06,49 C23.5784437,48.4945594 22.8963614,48.2305275 22.2,48.28 C21.3920032,48.2629356 20.6147535,48.5897164 20.0616909,49.1790141 C19.5086283,49.7683118 19.2317628,50.5647089 19.3,51.37 C19.244589,52.1687629 19.5230419,52.954717 20.0689568,53.5404383 C20.6148718,54.1261596 21.3793179,54.4591491 22.18,54.46 C22.8945371,54.4933712 23.5869759,54.2076028 24.07,53.68 L24.07,54.3 L25.63,54.3 L25.63,45.75 Z M29.91,53 C29.2417422,53.0040501 28.63703,52.6046186 28.3784876,51.9883875 C28.1199451,51.3721565 28.2586331,50.6608282 28.7297329,50.1868558 C29.2008328,49.7128834 29.9113049,49.5698738 30.5290962,49.8246654 C31.1468875,50.0794571 31.5499877,50.6817299 31.55,51.35 C31.5699233,51.7916591 31.4038906,52.2214627 31.0922245,52.5350292 C30.7805584,52.8485957 30.351772,53.0172381 29.91,53 L29.91,53 Z M28.35,45.75 L26.79,45.75 L26.79,54.28 L28.36,54.28 L28.36,53.7 C28.8407421,54.2248555 29.5288994,54.5103676 30.24,54.48 C31.0406821,54.4791491 31.8051282,54.1461596 32.3510432,53.5604383 C32.8969581,52.974717 33.175411,52.1887629 33.12,51.39 C33.1882372,50.5847089 32.9113717,49.7883118 32.3583091,49.1990141 C31.8052465,48.6097164 31.0279968,48.2829356 30.22,48.3 C29.5236386,48.2505275 28.8415563,48.5145594 28.36,49.02 L28.35,45.75 Z M36.84,53 C36.1726373,53 35.5709874,52.5979904 35.3155988,51.9814277 C35.0602101,51.3648649 35.2013771,50.6551705 35.6732738,50.1832738 C36.1451705,49.7113771 36.8548649,49.5702101 37.4714277,49.8255988 C38.0879904,50.0809874 38.49,50.6826373 38.49,51.35 C38.5010975,51.7909157 38.3308248,52.2170784 38.0189516,52.5289516 C37.7070784,52.8408248 37.2809157,53.0110975 36.84,53 M36.84,48.26 C35.1422483,48.3202865 33.8092777,49.7357672 33.8509429,51.4340779 C33.8926082,53.1323887 35.2933864,54.4808013 36.9920519,54.4577623 C38.6907174,54.4347233 40.05441,53.048816 40.05,51.35 C40.0368909,50.5136529 39.6906301,49.7171026 39.0880142,49.1370144 C38.4853983,48.5569261 37.6762396,48.2412503 36.84,48.26 M46.9,45.75 L45.33,45.75 L45.33,49 C44.8492491,48.4933565 44.1665758,48.2290959 43.47,48.28 C42.6620032,48.2629356 41.8847535,48.5897164 41.3316909,49.1790141 C40.7786283,49.7683118 40.5017628,50.5647089 40.57,51.37 C40.514589,52.1687629 40.7930419,52.954717 41.3389568,53.5404383 C41.8848718,54.1261596 42.6493179,54.4591491 43.45,54.46 C44.1611006,54.4903676 44.8492579,54.2048555 45.33,53.68 L45.33,54.3 L46.9,54.3 L46.9,45.75 Z M43.77,53 C43.100877,53.0081112 42.4931161,52.6112851 42.2314139,51.995409 C41.9697117,51.3795329 42.1058992,50.6665833 42.5761815,50.1905308 C43.0464637,49.7144782 43.7576995,49.5696067 44.3767212,49.823779 C44.9957428,50.0779513 45.3999508,50.6808278 45.4,51.35 C45.4197418,51.7898592 45.2550455,52.218005 44.9456092,52.5312381 C44.6361728,52.8444713 44.2100672,53.0143764 43.77,53 L43.77,53 Z M51.87,48.46 L53.48,48.46 L49.33,56.99 L47.72,56.99 L49.7,53.17 L47.4,48.46 L49.01,48.46 L50.45,51.53 L51.87,48.46 Z M56.21,48.29 C54.5531458,48.29 53.21,49.6331458 53.21,51.29 C53.21,52.9468542 54.5531458,54.29 56.21,54.29 C56.8656102,54.3450629 57.5144449,54.1239516 58,53.68 L58,54.06 C58.0423072,54.5164595 57.8763489,54.9676329 57.5483414,55.2878769 C57.2203339,55.6081209 56.7653154,55.7632266 56.31,55.71 C55.7306208,55.7194837 55.1632516,55.5443698 54.69,55.21 L54.38,55.21 L54.44,56.69 C55.0064049,57.0192853 55.6554733,57.1789491 56.31,57.15 C58.22,57.15 59.57,56.2 59.57,53.77 L59.57,48.46 L58,48.46 L58,49 C57.5674984,48.5107868 56.9312041,48.2518298 56.28,48.3 M56.47,52.87 C55.8373643,52.8821546 55.2600512,52.5109612 55.0085526,51.9303373 C54.757054,51.3497134 54.8811934,50.6746843 55.322807,50.2215253 C55.7644205,49.7683662 56.4360219,49.626851 57.0229417,49.8632845 C57.6098614,50.099718 57.9958271,50.6672613 58,51.3 C58.0169351,51.7169468 57.8594196,52.1221033 57.5653009,52.4181195 C57.2711822,52.7141358 56.8670471,52.8742535 56.45,52.86 L56.47,52.87 Z M63.75,48.29 L63.71,48.28 C64.0485051,48.2560606 64.3846844,48.3516063 64.66,48.55 L64.77,50.2 L64.55,50.2 C64.2974263,49.9098984 63.9345325,49.7393383 63.55,49.73 C63.1841333,49.7130004 62.8292187,49.8573182 62.5790377,50.1248195 C62.3288567,50.3923207 62.208584,50.7560877 62.25,51.12 L62.25,54.31 L60.68,54.31 L60.68,48.46 L62.24,48.46 L62.24,49.04 C62.6017501,48.5717442 63.1583088,48.2953078 63.75,48.29 Z M66.71,50.73 C66.8557143,50.0206817 67.4759216,49.5086984 68.2,49.5 C68.9183842,49.4756071 69.5317054,50.0144536 69.6,50.73 L66.71,50.73 Z M68.2,48.29 C66.5431458,48.29 65.2,49.6331458 65.2,51.29 C65.1944501,52.1314397 65.5290115,52.9394471 66.127766,53.5306701 C66.7265205,54.1218931 67.538698,54.4462002 68.38,54.43 C69.1948384,54.4343318 69.9959526,54.220241 70.7,53.81 L70.76,52.33 L70.59,52.33 C70.0129107,52.8502104 69.2565064,53.1262442 68.48,53.1 C67.6250494,53.1769212 66.8510312,52.5931645 66.69,51.75 L71.18,51.75 L71.18,51.29 C71.2237887,50.4817203 70.9218056,49.6929507 70.3494274,49.1205726 C69.7770493,48.5481944 68.9882797,48.2462113 68.18,48.29 L68.2,48.29 Z M82,48.29 C81.2588869,48.2835875 80.5540623,48.6103031 80.08,49.18 L80.08,48.46 L78.55,48.46 L78.55,54.31 L80.11,54.31 L80.11,51.31 C80.0619394,50.9241305 80.1789043,50.5358918 80.4321219,50.2407885 C80.6853396,49.9456852 81.0513077,49.7711073 81.44,49.76 C81.74988,49.7222543 82.0596096,49.8313853 82.2773848,50.0550463 C82.4951601,50.2787074 82.5959942,50.5912365 82.55,50.9 L82.55,54.34 L84.12,54.34 L84.12,50.34 C84.1593445,49.782276 83.9484066,49.2359776 83.5444542,48.8494203 C83.1405019,48.462863 82.5854534,48.2761602 82.03,48.34 M73.22,50.73 C73.3622355,50.0185948 73.9845316,49.5048873 74.71,49.5 C75.4283842,49.4756071 76.0417054,50.0144536 76.11,50.73 L73.22,50.73 Z M74.71,48.29 C73.0531458,48.29 71.71,49.6331458 71.71,51.29 C71.7044501,52.1314397 72.0390115,52.9394471 72.637766,53.5306701 C73.2365205,54.1218931 74.048698,54.4462002 74.89,54.43 C75.7048384,54.4343318 76.5059526,54.220241 77.21,53.81 L77.27,52.33 L77.1,52.33 C76.5229107,52.8502104 75.7665064,53.1262442 74.99,53.1 C74.1350494,53.1769212 73.3610312,52.5931645 73.2,51.75 L77.69,51.75 L77.69,51.29 C77.7337887,50.4817203 77.4318056,49.6929507 76.8594274,49.1205726 C76.2870493,48.5481944 75.4982797,48.2462113 74.69,48.29 L74.71,48.29 Z" id="Shape"></path>
            </g>
        </g>
    </g>
</svg>