<?xml version="1.0" encoding="UTF-8"?>
<svg width="218px" height="58px" viewBox="0 0 218 58" version="1.1" xmlns="http://www.w3.org/2000/svg" xmlns:xlink="http://www.w3.org/1999/xlink">
    <!-- Generator: Sketch 45.1 (43504) - http://www.bohemiancoding.com/sketch -->
    <title>well+good</title>
    <desc>Created with Sketch.</desc>
    <defs></defs>
    <g id="Page-1" stroke="none" stroke-width="1" fill="none" fill-rule="evenodd">
        <g id="well+good" fill="#9B9B9B">
            <path d="M0,24.508553 L0.679395207,24.508553 L3.48756206,34.5786997 L3.5177574,34.5786997 L6.37121727,24.508553 L7.20158919,24.508553 L10.1003421,34.5786997 L10.1305374,34.5786997 L12.8934113,24.508553 L13.6030018,24.508553 L10.5079792,35.2882903 L9.75309563,35.2882903 L6.79395207,25.0822645 L6.76375672,25.0822645 L3.84990617,35.2882903 L3.11012028,35.2882903 L0,24.508553 Z M25.2709856,24.508553 L32.5178678,24.508553 L32.5178678,25.0822645 L25.9352831,25.0822645 L25.9352831,29.4001985 L32.1253284,29.4001985 L32.1253284,29.97391 L25.9352831,29.97391 L25.9352831,34.7145788 L32.5933562,34.7145788 L32.5933562,35.2882903 L25.2709856,35.2882903 L25.2709856,24.508553 Z M44.533098,24.508553 L45.1973956,24.508553 L45.1973956,34.7145788 L51.3119524,34.7145788 L51.3119524,35.2882903 L44.533098,35.2882903 L44.533098,24.508553 Z M62.8893502,24.508553 L63.5536477,24.508553 L63.5536477,34.7145788 L69.6682046,34.7145788 L69.6682046,35.2882903 L62.8893502,35.2882903 L62.8893502,24.508553 Z M149.585212,29.9588123 C149.585212,29.1938598 149.698444,28.4666626 149.92491,27.7771988 C150.151376,27.0877351 150.481005,26.481318 150.913807,25.9579294 C151.346609,25.4345409 151.877539,25.0193591 152.506612,24.7123716 C153.135684,24.4053841 153.857849,24.2518926 154.673127,24.2518926 C155.226712,24.2518926 155.755125,24.3324127 156.258383,24.4934553 C156.761641,24.654498 157.212051,24.8910258 157.609625,25.2030459 C158.007199,25.515066 158.34186,25.892504 158.61362,26.3353712 C158.885379,26.7782385 159.066549,27.2814891 159.157136,27.8451384 L158.523034,27.8451384 C158.271405,26.8990129 157.818479,26.1592344 157.164243,25.6257807 C156.510008,25.092327 155.684676,24.8256041 154.688225,24.8256041 C153.963533,24.8256041 153.324405,24.9665143 152.770821,25.2483389 C152.217237,25.5301635 151.754246,25.9076015 151.381835,26.3806642 C151.009424,26.853727 150.727604,27.399754 150.536366,28.0187616 C150.345127,28.6377692 150.24951,29.2844463 150.24951,29.9588123 C150.24951,30.6432435 150.342611,31.2899206 150.528817,31.8988631 C150.715022,32.5078055 150.99181,33.038735 151.359189,33.4916674 C151.726567,33.9445998 152.187042,34.304424 152.740626,34.5711509 C153.29421,34.8378778 153.943403,34.9712392 154.688225,34.9712392 C155.332396,34.9712392 155.911134,34.8655565 156.424457,34.6541881 C156.937781,34.4428196 157.373093,34.1459017 157.730406,33.7634255 C158.087719,33.3809492 158.356958,32.9204749 158.538131,32.3819886 C158.719304,31.8435023 158.794792,31.2421177 158.764596,30.5778169 L154.793909,30.5778169 L154.793909,30.0041053 L159.338308,30.0041053 L159.338308,35.2882903 L158.764596,35.2882903 L158.764596,32.9934443 L158.734401,32.9934443 C158.603554,33.3859857 158.407286,33.7407774 158.145592,34.0578301 C157.883898,34.3748828 157.574398,34.6416056 157.217085,34.8580067 C156.859772,35.0744077 156.462204,35.2429967 156.024369,35.3637786 C155.586534,35.4845606 155.131093,35.5449507 154.65803,35.5449507 C153.842751,35.5449507 153.120587,35.399008 152.491514,35.1071182 C151.862441,34.8152285 151.331512,34.4176604 150.89871,33.9144022 C150.465908,33.411144 150.138795,32.8198244 149.917361,32.1404258 C149.695927,31.4610272 149.585212,30.73383 149.585212,29.9588123 Z M179.224457,29.8984216 C179.224457,30.6835045 179.10871,31.4207667 178.877211,32.1102305 C178.645712,32.7996943 178.311051,33.3985626 177.873216,33.9068534 C177.435381,34.4151442 176.899419,34.8152285 176.265314,35.1071182 C175.631208,35.399008 174.91156,35.5449507 174.106347,35.5449507 C173.301134,35.5449507 172.578969,35.399008 171.939831,35.1071182 C171.300693,34.8152285 170.762215,34.4151442 170.32438,33.9068534 C169.886546,33.3985626 169.551884,32.7996943 169.320385,32.1102305 C169.088886,31.4207667 168.973139,30.6835045 168.973139,29.8984216 C168.973139,29.1133388 169.088886,28.3760766 169.320385,27.6866128 C169.551884,26.997149 169.886546,26.3982807 170.32438,25.8899899 C170.762215,25.3816991 171.300693,24.9816148 171.939831,24.6897251 C172.578969,24.3978353 173.301134,24.2518926 174.106347,24.2518926 C174.91156,24.2518926 175.631208,24.3978353 176.265314,24.6897251 C176.899419,24.9816148 177.435381,25.3816991 177.873216,25.8899899 C178.311051,26.3982807 178.645712,26.997149 178.877211,27.6866128 C179.10871,28.3760766 179.224457,29.1133388 179.224457,29.8984216 Z M169.637436,29.8984216 C169.637436,30.592918 169.738086,31.2471439 169.93939,31.8611189 C170.140693,32.4750939 170.432578,33.0110559 170.815055,33.4690209 C171.197531,33.9269859 171.665554,34.2918426 172.219138,34.5636021 C172.772722,34.8353615 173.401785,34.9712392 174.106347,34.9712392 C174.810908,34.9712392 175.437455,34.8353615 175.986007,34.5636021 C176.534558,34.2918426 177.000065,33.9269859 177.382542,33.4690209 C177.765018,33.0110559 178.056903,32.4750939 178.258206,31.8611189 C178.45951,31.2471439 178.56016,30.592918 178.56016,29.8984216 C178.56016,29.2039253 178.45951,28.5496994 178.258206,27.9357244 C178.056903,27.3217493 177.765018,26.7857874 177.382542,26.3278224 C177.000065,25.8698574 176.534558,25.5050007 175.986007,25.2332412 C175.437455,24.9614818 174.810908,24.8256041 174.106347,24.8256041 C173.401785,24.8256041 172.772722,24.9614818 172.219138,25.2332412 C171.665554,25.5050007 171.197531,25.8698574 170.815055,26.3278224 C170.432578,26.7857874 170.140693,27.3217493 169.93939,27.9357244 C169.738086,28.5496994 169.637436,29.2039253 169.637436,29.8984216 Z M198.70297,29.8984216 C198.70297,30.6835045 198.587222,31.4207667 198.355723,32.1102305 C198.124225,32.7996943 197.789563,33.3985626 197.351728,33.9068534 C196.913894,34.4151442 196.377932,34.8152285 195.743826,35.1071182 C195.109721,35.399008 194.390072,35.5449507 193.584859,35.5449507 C192.779646,35.5449507 192.057481,35.399008 191.418343,35.1071182 C190.779205,34.8152285 190.240727,34.4151442 189.802893,33.9068534 C189.365058,33.3985626 189.030396,32.7996943 188.798897,32.1102305 C188.567399,31.4207667 188.451651,30.6835045 188.451651,29.8984216 C188.451651,29.1133388 188.567399,28.3760766 188.798897,27.6866128 C189.030396,26.997149 189.365058,26.3982807 189.802893,25.8899899 C190.240727,25.3816991 190.779205,24.9816148 191.418343,24.6897251 C192.057481,24.3978353 192.779646,24.2518926 193.584859,24.2518926 C194.390072,24.2518926 195.109721,24.3978353 195.743826,24.6897251 C196.377932,24.9816148 196.913894,25.3816991 197.351728,25.8899899 C197.789563,26.3982807 198.124225,26.997149 198.355723,27.6866128 C198.587222,28.3760766 198.70297,29.1133388 198.70297,29.8984216 Z M189.115949,29.8984216 C189.115949,30.592918 189.216599,31.2471439 189.417902,31.8611189 C189.619205,32.4750939 189.911091,33.0110559 190.293567,33.4690209 C190.676043,33.9269859 191.144066,34.2918426 191.69765,34.5636021 C192.251234,34.8353615 192.880298,34.9712392 193.584859,34.9712392 C194.289421,34.9712392 194.915968,34.8353615 195.464519,34.5636021 C196.013071,34.2918426 196.478578,33.9269859 196.861054,33.4690209 C197.24353,33.0110559 197.535416,32.4750939 197.736719,31.8611189 C197.938022,31.2471439 198.038672,30.592918 198.038672,29.8984216 C198.038672,29.2039253 197.938022,28.5496994 197.736719,27.9357244 C197.535416,27.3217493 197.24353,26.7857874 196.861054,26.3278224 C196.478578,25.8698574 196.013071,25.5050007 195.464519,25.2332412 C194.915968,24.9614818 194.289421,24.8256041 193.584859,24.8256041 C192.880298,24.8256041 192.251234,24.9614818 191.69765,25.2332412 C191.144066,25.5050007 190.676043,25.8698574 190.293567,26.3278224 C189.911091,26.7857874 189.619205,27.3217493 189.417902,27.9357244 C189.216599,28.5496994 189.115949,29.2039253 189.115949,29.8984216 Z M208.413289,24.508553 L211.946144,24.508553 C212.9124,24.508553 213.715085,24.6595282 214.354223,24.9614831 C214.99336,25.2634381 215.50416,25.6660386 215.886636,26.1692968 C216.269112,26.6725551 216.538352,27.2462608 216.694362,27.8904314 C216.850372,28.5346019 216.928375,29.1988928 216.928375,29.883324 C216.928375,30.6482765 216.830242,31.3603762 216.633971,32.0196445 C216.4377,32.6789127 216.133234,33.2501023 215.720562,33.7332301 C215.30789,34.216358 214.787026,34.5963123 214.157953,34.8731043 C213.52888,35.1498964 212.781553,35.2882903 211.915949,35.2882903 L208.413289,35.2882903 L208.413289,24.508553 Z M211.976339,34.7145788 L209.077586,34.7145788 L209.077586,25.0822645 L211.84046,25.0822645 C212.102155,25.0822645 212.396556,25.0998783 212.723674,25.1351064 C213.050792,25.1703344 213.377905,25.2433058 213.705023,25.3540226 C214.032141,25.4647394 214.349188,25.6232634 214.656176,25.8295992 C214.963163,26.0359351 215.234919,26.3177555 215.47145,26.6750688 C215.707982,27.0323822 215.899217,27.4727265 216.045162,27.9961151 C216.191107,28.5195036 216.264078,29.148567 216.264078,29.883324 C216.264078,30.8193843 216.135749,31.5969066 215.879087,32.2159142 C215.622426,32.8349218 215.287764,33.3281075 214.875092,33.695486 C214.46242,34.0628645 214.001946,34.3245548 213.493655,34.4805649 C212.985364,34.6365749 212.479598,34.7145788 211.976339,34.7145788 Z M81.3361876,19.5860851 L100.922273,19.5860851 L100.922273,0 L119.624621,0 L119.624621,19.5860851 L137.952567,19.5860851 L137.952567,38.2884337 L119.624621,38.2884337 L119.624621,57.8745187 L100.922273,57.8745187 L100.922273,38.2884337 L81.3361876,38.2884337 L81.3361876,19.5860851 Z M82.5943269,20.8442243 L82.5943269,37.0302944 L102.180412,37.0302944 L102.180412,56.6163795 L118.366482,56.6163795 L118.366482,37.0302944 L136.694428,37.0302944 L136.694428,20.8442243 L118.366482,20.8442243 L118.366482,1.25813927 L102.180412,1.25813927 L102.180412,20.8442243 L82.5943269,20.8442243 Z" id="WELL-GOOD"></path>
            <path d="M0,24.508553 L0.679395207,24.508553 L3.48756206,34.5786997 L3.5177574,34.5786997 L6.37121727,24.508553 L7.20158919,24.508553 L10.1003421,34.5786997 L10.1305374,34.5786997 L12.8934113,24.508553 L13.6030018,24.508553 L10.5079792,35.2882903 L9.75309563,35.2882903 L6.79395207,25.0822645 L6.76375672,25.0822645 L3.84990617,35.2882903 L3.11012028,35.2882903 L0,24.508553 Z M25.2709856,24.508553 L32.5178678,24.508553 L32.5178678,25.0822645 L25.9352831,25.0822645 L25.9352831,29.4001985 L32.1253284,29.4001985 L32.1253284,29.97391 L25.9352831,29.97391 L25.9352831,34.7145788 L32.5933562,34.7145788 L32.5933562,35.2882903 L25.2709856,35.2882903 L25.2709856,24.508553 Z M44.533098,24.508553 L45.1973956,24.508553 L45.1973956,34.7145788 L51.3119524,34.7145788 L51.3119524,35.2882903 L44.533098,35.2882903 L44.533098,24.508553 Z M62.8893502,24.508553 L63.5536477,24.508553 L63.5536477,34.7145788 L69.6682046,34.7145788 L69.6682046,35.2882903 L62.8893502,35.2882903 L62.8893502,24.508553 Z M149.585212,29.9588123 C149.585212,29.1938598 149.698444,28.4666626 149.92491,27.7771988 C150.151376,27.0877351 150.481005,26.481318 150.913807,25.9579294 C151.346609,25.4345409 151.877539,25.0193591 152.506612,24.7123716 C153.135684,24.4053841 153.857849,24.2518926 154.673127,24.2518926 C155.226712,24.2518926 155.755125,24.3324127 156.258383,24.4934553 C156.761641,24.654498 157.212051,24.8910258 157.609625,25.2030459 C158.007199,25.515066 158.34186,25.892504 158.61362,26.3353712 C158.885379,26.7782385 159.066549,27.2814891 159.157136,27.8451384 L158.523034,27.8451384 C158.271405,26.8990129 157.818479,26.1592344 157.164243,25.6257807 C156.510008,25.092327 155.684676,24.8256041 154.688225,24.8256041 C153.963533,24.8256041 153.324405,24.9665143 152.770821,25.2483389 C152.217237,25.5301635 151.754246,25.9076015 151.381835,26.3806642 C151.009424,26.853727 150.727604,27.399754 150.536366,28.0187616 C150.345127,28.6377692 150.24951,29.2844463 150.24951,29.9588123 C150.24951,30.6432435 150.342611,31.2899206 150.528817,31.8988631 C150.715022,32.5078055 150.99181,33.038735 151.359189,33.4916674 C151.726567,33.9445998 152.187042,34.304424 152.740626,34.5711509 C153.29421,34.8378778 153.943403,34.9712392 154.688225,34.9712392 C155.332396,34.9712392 155.911134,34.8655565 156.424457,34.6541881 C156.937781,34.4428196 157.373093,34.1459017 157.730406,33.7634255 C158.087719,33.3809492 158.356958,32.9204749 158.538131,32.3819886 C158.719304,31.8435023 158.794792,31.2421177 158.764596,30.5778169 L154.793909,30.5778169 L154.793909,30.0041053 L159.338308,30.0041053 L159.338308,35.2882903 L158.764596,35.2882903 L158.764596,32.9934443 L158.734401,32.9934443 C158.603554,33.3859857 158.407286,33.7407774 158.145592,34.0578301 C157.883898,34.3748828 157.574398,34.6416056 157.217085,34.8580067 C156.859772,35.0744077 156.462204,35.2429967 156.024369,35.3637786 C155.586534,35.4845606 155.131093,35.5449507 154.65803,35.5449507 C153.842751,35.5449507 153.120587,35.399008 152.491514,35.1071182 C151.862441,34.8152285 151.331512,34.4176604 150.89871,33.9144022 C150.465908,33.411144 150.138795,32.8198244 149.917361,32.1404258 C149.695927,31.4610272 149.585212,30.73383 149.585212,29.9588123 Z M179.224457,29.8984216 C179.224457,30.6835045 179.10871,31.4207667 178.877211,32.1102305 C178.645712,32.7996943 178.311051,33.3985626 177.873216,33.9068534 C177.435381,34.4151442 176.899419,34.8152285 176.265314,35.1071182 C175.631208,35.399008 174.91156,35.5449507 174.106347,35.5449507 C173.301134,35.5449507 172.578969,35.399008 171.939831,35.1071182 C171.300693,34.8152285 170.762215,34.4151442 170.32438,33.9068534 C169.886546,33.3985626 169.551884,32.7996943 169.320385,32.1102305 C169.088886,31.4207667 168.973139,30.6835045 168.973139,29.8984216 C168.973139,29.1133388 169.088886,28.3760766 169.320385,27.6866128 C169.551884,26.997149 169.886546,26.3982807 170.32438,25.8899899 C170.762215,25.3816991 171.300693,24.9816148 171.939831,24.6897251 C172.578969,24.3978353 173.301134,24.2518926 174.106347,24.2518926 C174.91156,24.2518926 175.631208,24.3978353 176.265314,24.6897251 C176.899419,24.9816148 177.435381,25.3816991 177.873216,25.8899899 C178.311051,26.3982807 178.645712,26.997149 178.877211,27.6866128 C179.10871,28.3760766 179.224457,29.1133388 179.224457,29.8984216 Z M169.637436,29.8984216 C169.637436,30.592918 169.738086,31.2471439 169.93939,31.8611189 C170.140693,32.4750939 170.432578,33.0110559 170.815055,33.4690209 C171.197531,33.9269859 171.665554,34.2918426 172.219138,34.5636021 C172.772722,34.8353615 173.401785,34.9712392 174.106347,34.9712392 C174.810908,34.9712392 175.437455,34.8353615 175.986007,34.5636021 C176.534558,34.2918426 177.000065,33.9269859 177.382542,33.4690209 C177.765018,33.0110559 178.056903,32.4750939 178.258206,31.8611189 C178.45951,31.2471439 178.56016,30.592918 178.56016,29.8984216 C178.56016,29.2039253 178.45951,28.5496994 178.258206,27.9357244 C178.056903,27.3217493 177.765018,26.7857874 177.382542,26.3278224 C177.000065,25.8698574 176.534558,25.5050007 175.986007,25.2332412 C175.437455,24.9614818 174.810908,24.8256041 174.106347,24.8256041 C173.401785,24.8256041 172.772722,24.9614818 172.219138,25.2332412 C171.665554,25.5050007 171.197531,25.8698574 170.815055,26.3278224 C170.432578,26.7857874 170.140693,27.3217493 169.93939,27.9357244 C169.738086,28.5496994 169.637436,29.2039253 169.637436,29.8984216 Z M198.70297,29.8984216 C198.70297,30.6835045 198.587222,31.4207667 198.355723,32.1102305 C198.124225,32.7996943 197.789563,33.3985626 197.351728,33.9068534 C196.913894,34.4151442 196.377932,34.8152285 195.743826,35.1071182 C195.109721,35.399008 194.390072,35.5449507 193.584859,35.5449507 C192.779646,35.5449507 192.057481,35.399008 191.418343,35.1071182 C190.779205,34.8152285 190.240727,34.4151442 189.802893,33.9068534 C189.365058,33.3985626 189.030396,32.7996943 188.798897,32.1102305 C188.567399,31.4207667 188.451651,30.6835045 188.451651,29.8984216 C188.451651,29.1133388 188.567399,28.3760766 188.798897,27.6866128 C189.030396,26.997149 189.365058,26.3982807 189.802893,25.8899899 C190.240727,25.3816991 190.779205,24.9816148 191.418343,24.6897251 C192.057481,24.3978353 192.779646,24.2518926 193.584859,24.2518926 C194.390072,24.2518926 195.109721,24.3978353 195.743826,24.6897251 C196.377932,24.9816148 196.913894,25.3816991 197.351728,25.8899899 C197.789563,26.3982807 198.124225,26.997149 198.355723,27.6866128 C198.587222,28.3760766 198.70297,29.1133388 198.70297,29.8984216 Z M189.115949,29.8984216 C189.115949,30.592918 189.216599,31.2471439 189.417902,31.8611189 C189.619205,32.4750939 189.911091,33.0110559 190.293567,33.4690209 C190.676043,33.9269859 191.144066,34.2918426 191.69765,34.5636021 C192.251234,34.8353615 192.880298,34.9712392 193.584859,34.9712392 C194.289421,34.9712392 194.915968,34.8353615 195.464519,34.5636021 C196.013071,34.2918426 196.478578,33.9269859 196.861054,33.4690209 C197.24353,33.0110559 197.535416,32.4750939 197.736719,31.8611189 C197.938022,31.2471439 198.038672,30.592918 198.038672,29.8984216 C198.038672,29.2039253 197.938022,28.5496994 197.736719,27.9357244 C197.535416,27.3217493 197.24353,26.7857874 196.861054,26.3278224 C196.478578,25.8698574 196.013071,25.5050007 195.464519,25.2332412 C194.915968,24.9614818 194.289421,24.8256041 193.584859,24.8256041 C192.880298,24.8256041 192.251234,24.9614818 191.69765,25.2332412 C191.144066,25.5050007 190.676043,25.8698574 190.293567,26.3278224 C189.911091,26.7857874 189.619205,27.3217493 189.417902,27.9357244 C189.216599,28.5496994 189.115949,29.2039253 189.115949,29.8984216 Z M208.413289,24.508553 L211.946144,24.508553 C212.9124,24.508553 213.715085,24.6595282 214.354223,24.9614831 C214.99336,25.2634381 215.50416,25.6660386 215.886636,26.1692968 C216.269112,26.6725551 216.538352,27.2462608 216.694362,27.8904314 C216.850372,28.5346019 216.928375,29.1988928 216.928375,29.883324 C216.928375,30.6482765 216.830242,31.3603762 216.633971,32.0196445 C216.4377,32.6789127 216.133234,33.2501023 215.720562,33.7332301 C215.30789,34.216358 214.787026,34.5963123 214.157953,34.8731043 C213.52888,35.1498964 212.781553,35.2882903 211.915949,35.2882903 L208.413289,35.2882903 L208.413289,24.508553 Z M211.976339,34.7145788 L209.077586,34.7145788 L209.077586,25.0822645 L211.84046,25.0822645 C212.102155,25.0822645 212.396556,25.0998783 212.723674,25.1351064 C213.050792,25.1703344 213.377905,25.2433058 213.705023,25.3540226 C214.032141,25.4647394 214.349188,25.6232634 214.656176,25.8295992 C214.963163,26.0359351 215.234919,26.3177555 215.47145,26.6750688 C215.707982,27.0323822 215.899217,27.4727265 216.045162,27.9961151 C216.191107,28.5195036 216.264078,29.148567 216.264078,29.883324 C216.264078,30.8193843 216.135749,31.5969066 215.879087,32.2159142 C215.622426,32.8349218 215.287764,33.3281075 214.875092,33.695486 C214.46242,34.0628645 214.001946,34.3245548 213.493655,34.4805649 C212.985364,34.6365749 212.479598,34.7145788 211.976339,34.7145788 Z M81.3361876,19.5860851 L100.922273,19.5860851 L100.922273,0 L119.624621,0 L119.624621,19.5860851 L137.952567,19.5860851 L137.952567,38.2884337 L119.624621,38.2884337 L119.624621,57.8745187 L100.922273,57.8745187 L100.922273,38.2884337 L81.3361876,38.2884337 L81.3361876,19.5860851 Z M82.5943269,20.8442243 L82.5943269,37.0302944 L102.180412,37.0302944 L102.180412,56.6163795 L118.366482,56.6163795 L118.366482,37.0302944 L136.694428,37.0302944 L136.694428,20.8442243 L118.366482,20.8442243 L118.366482,1.25813927 L102.180412,1.25813927 L102.180412,20.8442243 L82.5943269,20.8442243 Z" id="WELL-GOOD-Copy"></path>
        </g>
    </g>
</svg>